# xmcd
#
# Track frame offsets:
#	150
#	20575
#	37525
#	50650
#	65200
#	80159
#	102959
#	116008
#	134249
#	144974
#
# Disc length: 2097 seconds
#
# Revision: 0
# Processed by: cddbd v1.5.2PL0 Copyright (c) Steve Scherf et al.
# Submitted via: dBpowerAMP V4.0
#
DISCID=91082f0a
DTITLE=Madonna Parsons - How Long Is Forever
DYEAR=2002
DGENRE=Country
TTITLE0=How Long Is Forever
TTITLE1=Why Don't They Come Home
TTITLE2=I Need Loving Too
TTITLE3=Have You Seen Me Cheating Lately
TTITLE4=Back to My Broken Heart
TTITLE5=Diana, Our Queen of Hearts
TTITLE6=When You're Ready
TTITLE7=When the Storm Passes
TTITLE8=Back to the Country
TTITLE9=This Ring Is a Circle
EXTD=
EXTT0=
EXTT1=
EXTT2=
EXTT3=
EXTT4=
EXTT5=
EXTT6=
EXTT7=
EXTT8=
EXTT9=
PLAYORDER=
